<svg id="Capa_1" enable-background="new 0 0 512 512" height="512" viewBox="0 0 512 512" width="512" xmlns="http://www.w3.org/2000/svg"><g><path d="m56.084 464.086-1.836-49.224c-.366-9.802-3.493-19.3-9.021-27.402l-33.509-49.107c-15.26-22.363-15.645-51.689-.977-74.445l57.765-89.673 37.724 129.964-15.153 161.75-29.043 3.26c-3.096.347-5.834-2.011-5.95-5.123z" fill="#f1d0a5"/><path d="m512 289.421c0 14.635-11.864 26.499-26.499 26.499h-394.391c-14.635 0-26.499-11.864-26.499-26.499v-262.922c0-14.635 11.864-26.499 26.499-26.499h394.391c14.635 0 26.499 11.864 26.499 26.499z" fill="#365e7d"/><path d="m512 26.499c0-14.635-11.864-26.499-26.499-26.499h-17.994c14.635 0 26.499 11.864 26.499 26.499v262.922c0 14.635-11.864 26.499-26.499 26.499h17.994c14.635 0 26.499-11.864 26.499-26.499z" fill="#2b4d66"/><path d="m475.282 35.276h-362.718c-.794 0-1.441.684-1.441 1.524v242.32c0 .84.647 1.524 1.441 1.524h362.717c.795 0 1.442-.684 1.442-1.524v-242.32c.001-.84-.646-1.524-1.441-1.524z" fill="#d3effb"/><path d="m475.282 35.276h-19.25c.795 0 1.442.684 1.442 1.524v242.32c0 .84-.647 1.524-1.442 1.524h19.25c.795 0 1.442-.684 1.442-1.524v-242.32c0-.84-.647-1.524-1.442-1.524z" fill="#b1e4f9"/><g><path d="m88.094 171.97c-4.268 0-7.726-3.459-7.726-7.726v-12.567c0-4.268 3.459-7.726 7.726-7.726s7.726 3.459 7.726 7.726v12.567c.001 4.267-3.458 7.726-7.726 7.726z" fill="#2b4d66"/></g><path d="m131.356 456.903.828-35.631c.149-6.43 1.306-12.797 3.426-18.87 5.957-17.057 2.583-35.986-8.899-49.936-2.417-2.937-2.795-7.052-.953-10.379l48.799-88.167c3.957-7.15 2.649-16.063-3.196-21.774-7.318-7.15-19.096-6.844-26.032.678l-81.174 88.028 5.341 61.347 21.58 83.749 35.503-3.845c2.671-.289 4.714-2.514 4.777-5.2z" fill="#f1d0a5"/><path d="m174.557 253.92c3.957-7.15 2.649-16.063-3.196-21.774-6.593-6.442-16.797-6.811-23.827-1.323.524.41 1.033.847 1.52 1.323 5.845 5.711 7.153 14.624 3.196 21.774l-48.799 88.167c-1.842 3.328-1.464 7.443.953 10.379 11.482 13.95 14.856 32.879 8.899 49.936-2.121 6.072-3.277 12.439-3.426 18.87l-.571 24.578c-.209 9.011-7.064 16.472-16.025 17.443l-.397.043c-1.272.138-2.127 1.372-1.807 2.612l35.503-3.845c2.671-.289 4.715-2.513 4.777-5.2l.803-34.537c.157-6.771 1.195-13.523 3.435-19.915 5.98-17.07 2.61-36.021-8.882-49.984-2.417-2.936-2.795-7.052-.953-10.379z" fill="#f1b986"/><path d="m416.158 246.784h-103.72c-7.326 0-13.265-5.939-13.265-13.265v-33.288c0-7.326 5.939-13.265 13.265-13.265h103.72c7.326 0 13.265 5.939 13.265 13.265v33.288c0 7.326-5.939 13.265-13.265 13.265z" fill="#80e29d"/><path d="m416.158 186.965h-20.549c7.326 0 13.265 5.939 13.265 13.265v33.288c0 7.326-5.939 13.265-13.265 13.265h20.549c7.326 0 13.265-5.939 13.265-13.265v-33.288c0-7.325-5.939-13.265-13.265-13.265z" fill="#66b49d"/><g><path d="m462.844 512c3.369 0 6.1-2.731 6.1-6.1v-29.781c0-6.785 1.872-13.409 5.369-18.995l15.343-24.509c7.116-11.367 8.713-25.859 4.272-38.772l-7.268-21.132-14.048-29.754h-103.825l-23.853 29.754-35.703-17.383c-6.48-3.155-14.056-1.556-19.019 4.013-6.581 7.385-6.484 19.248.216 26.502l46.287 50.113c5.257 5.692 8.219 13.472 8.219 21.593v48.35c0 3.369 2.731 6.1 6.1 6.1h111.81z" fill="#f1d0a5"/></g><g><path d="m493.928 393.844-7.268-21.132-14.048-29.754s-16.335-.574-16.335-.574l12.667 30.329 5.678 21.132c4.441 12.913 2.845 27.405-4.271 38.772l-15.344 24.509c-3.496 5.585-5.369 12.21-5.369 18.995v35.879h13.206c3.369 0 6.1-2.731 6.1-6.1v-29.781c0-6.785 1.873-13.41 5.369-18.995l15.343-24.509c7.116-11.367 8.713-25.859 4.272-38.771z" fill="#f1b986"/></g><g fill="#f1d0a5"><path d="m380.366 372.711v-132.191c0-10.779-7.932-19.518-17.716-19.518-9.784 0-17.716 8.738-17.716 19.518v132.192h35.432z"/><path d="m415.797 372.711v-57.144c0-6.54-5.944-11.842-13.277-11.842h-8.877c-7.333 0-13.277 5.302-13.277 11.842v57.144z"/><path d="m451.229 372.711v-57.144c0-6.54-5.944-11.842-13.277-11.842h-8.877c-7.333 0-13.277 5.302-13.277 11.842v57.144z"/><path d="m486.66 372.711v-57.144c0-6.54-5.944-11.842-13.277-11.842h-8.877c-7.333 0-13.277 5.302-13.277 11.842v57.144z"/></g><path d="m473.383 303.725h-8.877c-1.552 0-3.035.25-4.419.686 5.157 1.626 8.858 6 8.858 11.156v57.144h17.716v-57.144c-.001-6.54-5.946-11.842-13.278-11.842z" fill="#f1b986"/><g><path d="m380.366 380.438c-4.268 0-7.726-3.459-7.726-7.726v-57.144c0-4.268 3.459-7.726 7.726-7.726 4.268 0 7.726 3.459 7.726 7.726v57.144c0 4.267-3.458 7.726-7.726 7.726z" fill="#f1b986"/></g><g><path d="m415.798 380.438c-4.268 0-7.726-3.459-7.726-7.726v-57.144c0-4.268 3.459-7.726 7.726-7.726s7.726 3.459 7.726 7.726v57.144c0 4.267-3.459 7.726-7.726 7.726z" fill="#f1b986"/></g><g><path d="m451.228 380.438c-4.268 0-7.726-3.459-7.726-7.726v-57.144c0-4.268 3.459-7.726 7.726-7.726s7.726 3.459 7.726 7.726v57.144c.001 4.267-3.458 7.726-7.726 7.726z" fill="#f1b986"/></g><path d="m269.008 193.369c-32.24 13.493-64.48 13.493-96.721 0-3.11-1.302-5.145-4.336-5.145-7.708v-77.484h107.01v77.484c0 3.372-2.034 6.407-5.144 7.708z" fill="#4a80aa"/><path d="m260.117 108.177v71.368c0 3.372-2.034 6.407-5.145 7.708-28.512 11.932-57.024 13.304-85.536 4.131.79.835 1.748 1.523 2.851 1.984 32.24 13.493 64.48 13.493 96.721 0 3.111-1.302 5.145-4.336 5.145-7.708v-77.484h-14.036z" fill="#407093"/><path d="m303.543 111.317-81.996 45.121c-.56.308-1.239.308-1.799 0l-81.996-45.121c-1.288-.709-1.288-2.56 0-3.269l81.996-45.121c.56-.308 1.239-.308 1.799 0l81.996 45.121c1.288.709 1.288 2.56 0 3.269z" fill="#365e7d"/><path d="m303.543 108.048-81.996-45.121c-.56-.308-1.239-.308-1.799 0l-13.136 7.229 68.86 37.892c1.288.709 1.288 2.56 0 3.269l-68.86 37.892 13.136 7.229c.56.308 1.239.308 1.799 0l81.996-45.121c1.288-.709 1.288-2.56 0-3.269z" fill="#2b4d66"/><g><path d="m245.047 176.98c-4.268 0-7.726-3.459-7.726-7.726v-26.871l-23.586-27.69c-2.767-3.248-2.376-8.125.872-10.892 3.249-2.769 8.126-2.375 10.892.872l25.43 29.856c1.19 1.398 1.844 3.174 1.844 5.01v29.715c0 4.267-3.458 7.726-7.726 7.726z" fill="#407093"/></g><g><path d="m398.081 110.107h-57.853c-4.268 0-7.726-3.459-7.726-7.726 0-4.268 3.459-7.726 7.726-7.726h57.853c4.268 0 7.726 3.459 7.726 7.726.001 4.267-3.458 7.726-7.726 7.726z" fill="#2b4d66"/></g><g><path d="m439.289 145.553h-99.06c-4.268 0-7.726-3.459-7.726-7.726s3.459-7.726 7.726-7.726h99.06c4.268 0 7.726 3.459 7.726 7.726s-3.459 7.726-7.726 7.726z" fill="#2b4d66"/></g></g></svg>